HIERARCHY
ROOT root
{
	OFFSET 0.000000 0.000000 0.000000
	CHANNELS 6 Xposition Yposition Zposition Zrotation Yrotation Xrotation
	JOINT lhip
	{
		OFFSET 0.058581 -0.082280 -0.017664
		CHANNELS 3 Zrotation Yrotation Xrotation
		JOINT lknee
		{
			OFFSET 0.043451 -0.386469 0.008037
			CHANNELS 3 Zrotation Yrotation Xrotation
			JOINT lankle
			{
				OFFSET -0.014790 -0.426874 -0.037428
				CHANNELS 3 Zrotation Yrotation Xrotation
				JOINT ltoe
				{
					OFFSET 0.041054 -0.060286 0.122042
					CHANNELS 3 Zrotation Yrotation Xrotation
					End Site
					{
						OFFSET 0.000000 0.000000 0.000000
					}
				}
			}
		}
	}
	JOINT rhip
	{
		OFFSET -0.060310 -0.090513 -0.013543
		CHANNELS 3 Zrotation Yrotation Xrotation
		JOINT rknee
		{
			OFFSET -0.043257 -0.383688 -0.004843
			CHANNELS 3 Zrotation Yrotation Xrotation
			JOINT rankle
			{
				OFFSET 0.019056 -0.420046 -0.034562
				CHANNELS 3 Zrotation Yrotation Xrotation
				JOINT rtoe
				{
					OFFSET -0.034840 -0.062106 0.130323
					CHANNELS 3 Zrotation Yrotation Xrotation
					End Site
					{
						OFFSET 0.000000 0.000000 0.000000
					}
				}
			}
		}
	}
	JOINT lowerback
	{
		OFFSET 0.004439 0.124404 -0.038385
		CHANNELS 3 Zrotation Yrotation Xrotation
		JOINT upperback
		{
			OFFSET 0.004488 0.137956 0.026820
			CHANNELS 3 Zrotation Yrotation Xrotation
			JOINT chest
			{
				OFFSET -0.002265 0.056032 0.002855
				CHANNELS 3 Zrotation Yrotation Xrotation
				JOINT lowerneck
				{
					OFFSET -0.013390 0.211636 -0.033468
					CHANNELS 3 Zrotation Yrotation Xrotation
					JOINT upperneck
					{
						OFFSET 0.010113 0.088937 0.050410
						CHANNELS 3 Zrotation Yrotation Xrotation
						End Site
						{
							OFFSET 0.000000 0.000000 0.000000
						}
					}
				}
				JOINT lclavicle
				{
					OFFSET 0.071702 0.114000 -0.018898
					CHANNELS 3 Zrotation Yrotation Xrotation
					JOINT lshoulder
					{
						OFFSET 0.122921 0.045205 -0.019046
						CHANNELS 3 Zrotation Yrotation Xrotation
						JOINT lelbow
						{
							OFFSET 0.255332 -0.015649 -0.022946
							CHANNELS 3 Zrotation Yrotation Xrotation
							JOINT lwrist
							{
								OFFSET 0.265709 0.012698 -0.007375
								CHANNELS 3 Zrotation Yrotation Xrotation
								End Site
								{
									OFFSET 0.000000 0.000000 0.000000
								}
							}
						}
					}
				}
				JOINT rclavicle
				{
					OFFSET -0.082954 0.112472 -0.023707
					CHANNELS 3 Zrotation Yrotation Xrotation
					JOINT rshoulder
					{
						OFFSET -0.113228 0.046853 -0.008472
						CHANNELS 3 Zrotation Yrotation Xrotation
						JOINT relbow
						{
							OFFSET -0.260127 -0.014369 -0.031269
							CHANNELS 3 Zrotation Yrotation Xrotation
							JOINT rwrist
							{
								OFFSET -0.269108 0.006794 -0.006027
								CHANNELS 3 Zrotation Yrotation Xrotation
								End Site
								{
									OFFSET 0.000000 0.000000 0.000000
								}
							}
						}
					}
				}
			}
		}
	}
}
MOTION
Frames: 8
Frame Time: 0.033333
0.009939 -1.134562 0.987702 177.428782 -2.701164 82.545618 -4.368064 -0.521844 5.376135 -0.286533 -10.288600 4.136168 4.489437 10.068445 -10.764606 0.000000 -0.000000 0.000000 -0.391821 -4.596894 6.252275 -2.801566 -2.079516 1.851436 0.094745 -12.195924 -11.589711 0.000000 -0.000000 0.000000 -3.479324 5.074377 4.976713 -1.534189 -2.453640 15.444434 -1.585218 0.556456 -3.634698 2.989449 4.648237 0.768614 6.782195 2.619496 13.525014 -31.698531 -9.986673 6.185322 -45.004511 -9.951727 10.590023 2.876795 -20.670749 0.198803 -3.271378 -1.874180 2.540231 32.616014 12.073800 12.132358 52.224631 7.058422 13.389916 -10.443381 24.325783 -10.860036 3.784725 5.673351 -8.750164 
0.010043 -1.134718 0.987614 177.480441 -2.626906 82.603748 -4.270009 -0.608702 5.291007 -0.309402 -10.300969 4.146191 4.375313 10.053760 -10.781875 0.000000 -0.000000 0.000000 -0.268279 -4.594104 6.202172 -2.850284 -2.113163 1.803392 0.229896 -12.286969 -11.591715 0.000000 -0.000000 0.000000 -3.454455 5.042124 5.044475 -1.597492 -2.451598 15.154622 -1.543105 0.579821 -3.412079 3.046830 4.612604 0.494254 6.837971 2.531462 13.331616 -31.574034 -10.086976 6.244185 -45.070096 -9.946568 10.674128 2.895933 -20.729496 0.490668 -3.292153 -1.915297 2.289747 32.623809 12.187622 12.153746 52.273338 6.990753 13.415084 -10.619484 24.321184 -10.775476 3.785816 5.656877 -8.997029 
0.010020 -1.134719 0.987603 177.485950 -2.616470 82.663516 -4.266047 -0.585308 5.256528 -0.282536 -10.332844 4.085961 4.357074 10.065628 -10.756478 0.000000 -0.000000 0.000000 -0.244322 -4.592709 6.162508 -2.866908 -2.133232 1.747202 0.247808 -12.290421 -11.570982 0.000000 -0.000000 0.000000 -3.477660 5.039353 5.101563 -1.629011 -2.436038 15.025137 -1.548647 0.613494 -3.371414 3.039617 4.553922 0.270572 6.894502 2.502965 13.094716 -31.526192 -10.123121 6.193361 -45.040004 -9.914005 10.795734 2.781849 -20.750927 0.755749 -3.282340 -2.022300 2.324485 32.609202 12.176277 12.112095 52.293920 6.918076 13.403551 -10.598184 24.312816 -10.711951 3.760589 5.747639 -9.096416 
0.010169 -1.134766 0.987592 177.407025 -2.575395 82.662895 -4.187449 -0.544279 5.264556 -0.313231 -10.351109 4.067022 4.316401 10.084594 -10.743760 0.000000 -0.000000 0.000000 -0.179854 -4.557083 6.151193 -2.873216 -2.077154 1.749797 0.303841 -12.285144 -11.553166 0.000000 -0.000000 0.000000 -3.475033 5.005447 5.251817 -1.678522 -2.391207 14.852969 -1.575686 0.645989 -3.289550 3.019325 4.592116 -0.068638 6.863044 2.544146 12.993292 -31.484279 -10.159915 6.189509 -45.063144 -9.834833 10.853281 2.859623 -20.863212 0.929744 -2.942819 -1.930586 2.217104 32.585242 12.161808 12.121534 52.312898 6.911654 13.386066 -10.588335 24.391629 -10.599995 3.730072 5.559672 -9.196639 
0.010196 -1.134760 0.987575 177.362059 -2.563252 82.661163 -4.169922 -0.549924 5.253173 -0.328660 -10.309792 4.103732 4.304521 10.101771 -10.751239 0.000000 -0.000000 0.000000 -0.157491 -4.536064 6.142003 -2.880750 -2.048994 1.769404 0.323072 -12.279328 -11.556272 0.000000 -0.000000 0.000000 -3.453669 5.008126 5.277818 -1.697207 -2.363120 14.817818 -1.591430 0.645858 -3.248347 2.998425 4.572996 -0.146099 6.810006 2.539196 12.999758 -31.464569 -10.153544 6.198273 -45.131396 -9.815556 10.874067 2.984411 -20.928968 0.925648 -2.719486 -1.940254 2.194995 32.564073 12.174476 12.132058 52.340821 6.915570 13.395118 -10.592333 24.410350 -10.567001 3.659431 5.498852 -9.234623 
0.010214 -1.134572 0.987611 177.261952 -2.562081 82.668070 -4.164801 -0.484239 5.302538 -0.300920 -10.295283 4.030111 4.282749 10.117433 -10.707492 0.000000 -0.000000 0.000000 -0.147379 -4.523679 6.134309 -2.905871 -2.000646 1.787398 0.309795 -12.204390 -11.535542 0.000000 -0.000000 0.000000 -3.421703 5.024247 5.236662 -1.726017 -2.314609 14.839627 -1.634788 0.654394 -3.271703 2.875388 4.570021 -0.072195 6.728444 2.542854 12.914931 -31.395977 -10.138738 6.190429 -45.320231 -9.757383 10.916469 3.157043 -21.009061 0.728637 -2.174500 -1.867784 2.168439 32.505257 12.173082 12.132273 52.418664 6.897732 13.385763 -10.539804 24.345639 -10.567508 3.522809 5.482270 -9.214853 
0.010281 -1.134458 0.987524 177.202591 -2.557399 82.684144 -4.136761 -0.405367 5.295950 -0.307028 -10.298392 4.023319 4.264398 10.104534 -10.712553 0.000000 -0.000000 0.000000 -0.121858 -4.546828 6.098775 -2.935946 -2.022009 1.801729 0.333719 -12.171964 -11.570718 0.000000 -0.000000 0.000000 -3.447672 5.012131 5.249809 -1.711391 -2.287763 14.809575 -1.636565 0.680344 -3.327160 2.802836 4.603399 0.053677 6.636260 2.631385 12.858953 -31.344911 -10.125241 6.173475 -45.519425 -9.672455 10.999325 3.256715 -21.132070 0.537375 -1.362150 -1.634916 2.063927 32.451134 12.139453 12.154939 52.442224 6.862392 13.390509 -10.490645 24.372733 -10.600128 3.244436 5.363403 -9.154009 
0.010188 -1.134322 0.987482 177.211382 -2.579013 82.685087 -4.182366 -0.435698 5.301002 -0.291421 -10.310974 4.034037 4.277497 10.121586 -10.727327 0.000000 -0.000000 0.000000 -0.156260 -4.524816 6.113633 -2.930925 -1.967312 1.813384 0.330645 -12.192909 -11.594236 0.000000 -0.000000 0.000000 -3.437023 5.009108 5.213687 -1.730270 -2.307403 14.862109 -1.652877 0.664034 -3.348493 2.701940 4.645967 0.036352 6.580817 2.675097 12.946737 -31.429791 -10.119597 6.201052 -45.482046 -9.741646 10.910772 3.294074 -20.824497 0.497462 -1.627967 -1.655318 2.255303 32.470133 12.116604 12.201705 52.402003 6.859144 13.339613 -10.519474 24.380696 -10.623898 3.385749 5.377785 -9.088518 
